<svg xmlns="http://www.w3.org/2000/svg" viewBox="0 0 512 512">
  <!-- Frames -->
  <path d="M128 320c-44.2 0-80 35.8-80 80s35.8 80 80 80 80-35.8 80-80-35.8-80-80-80zm0 120c-22.1 0-40-17.9-40-40s17.9-40 40-40 40 17.9 40 40-17.9 40-40 40z" fill="black"/>
  <path d="M384 320c-44.2 0-80 35.8-80 80s35.8 80 80 80 80-35.8 80-80-35.8-80-80-80zm0 120c-22.1 0-40-17.9-40-40s17.9-40 40-40 40 17.9 40 40-17.9 40-40 40z" fill="black"/>
  <!-- Bridge -->
  <path d="M208 400c0-26.5 21.5-48 48-48s48 21.5 48 48v16h-96v-16z" fill="white"/>
  <path d="M208 400c0-30.9 25.1-56 56-56s56 25.1 56 56v16h-112v-16zm56-24c-13.3 0-24 10.7-24 24v8h48v-8c0-13.3-10.7-24-24-24z" fill="black"/>
  <!-- Temples (Arms) -->
  <path d="M80 400V96c0-53 43-96 96-96h32c8.8 0 16 7.2 16 16s-7.2 16-16 16h-32c-35.3 0-64 28.7-64 64v304H80z" fill="black"/>
  <path d="M432 400V96c0-53-43-96-96-96h-32c-8.8 0-16 7.2-16 16s7.2 16 16 16h32c35.3 0 64 28.7 64 64v304h32z" fill="black"/>
</svg>
